<?xml version="1.0" encoding="UTF-8" standalone="no"?>
<!DOCTYPE svg PUBLIC "-//W3C//DTD SVG 1.1//EN" "http://www.w3.org/Graphics/SVG/1.1/DTD/svg11.dtd">
<!-- Generated by Microsoft Visio, SVG Export Docker_Volume_Conatiner_Image_Interation.svg Overview VCI -->
<svg xmlns="http://www.w3.org/2000/svg" xmlns:xlink="http://www.w3.org/1999/xlink" xmlns:ev="http://www.w3.org/2001/xml-events"
		xmlns:v="http://schemas.microsoft.com/visio/2003/SVGExtensions/" width="11.6929in" height="8.26772in"
		viewBox="0 0 841.89 595.276" xml:space="preserve" color-interpolation-filters="sRGB" class="st24">
	<v:documentProperties v:langID="1033" v:metric="true" v:viewMarkup="false">
		<v:userDefs>
			<v:ud v:nameU="msvNoAutoConnect" v:val="VT0(1):26"/>
		</v:userDefs>
	</v:documentProperties>

	<style type="text/css">
	<![CDATA[
		.st1 {fill:none;stroke:none;stroke-linecap:round;stroke-linejoin:round;stroke-width:0.75}
		.st2 {fill:#000000;font-family:Calibri;font-size:1.00001em}
		.st3 {fill:#31859b;stroke:none;stroke-linecap:butt;stroke-width:0.75}
		.st4 {font-size:1em}
		.st5 {fill:none;stroke:#923931;stroke-linecap:round;stroke-linejoin:round;stroke-width:3}
		.st6 {fill:#000000;font-family:Calibri;font-size:1.00001em;font-weight:bold}
		.st7 {marker-end:url(#mrkr13-21);stroke:#923931;stroke-linecap:round;stroke-linejoin:round;stroke-width:1.5}
		.st8 {fill:#923931;fill-opacity:1;stroke:#923931;stroke-opacity:1;stroke-width:0.37313432835821}
		.st9 {fill:none;stroke:#000000;stroke-linecap:round;stroke-linejoin:round;stroke-width:3}
		.st10 {marker-end:url(#mrkr13-61);stroke:#000000;stroke-linecap:round;stroke-linejoin:round;stroke-width:1.5}
		.st11 {fill:#000000;fill-opacity:1;stroke:#000000;stroke-opacity:1;stroke-width:0.37313432835821}
		.st12 {marker-end:url(#mrkr13-72);stroke:#000000;stroke-linecap:round;stroke-linejoin:round;stroke-width:1.5}
		.st13 {marker-end:url(#mrkr13-81);marker-start:url(#mrkr13-79);stroke:#31859b;stroke-dasharray:10.5,7.5;stroke-linecap:round;stroke-linejoin:round;stroke-width:1.5}
		.st14 {fill:#31859b;fill-opacity:1;stroke:#31859b;stroke-opacity:1;stroke-width:0.37313432835821}
		.st15 {fill:#000000;stroke:none;stroke-linecap:butt;stroke-width:10.2}
		.st16 {fill:none;stroke:#ea700d;stroke-linecap:round;stroke-linejoin:round;stroke-width:3}
		.st17 {fill:#000000;font-family:Calibri;font-size:1.99999em;font-weight:bold}
		.st18 {fill:none;stroke:#ffd965;stroke-linecap:round;stroke-linejoin:round;stroke-width:3}
		.st19 {marker-end:url(#mrkr13-150);marker-start:url(#mrkr13-148);stroke:#ffd965;stroke-linecap:round;stroke-linejoin:round;stroke-width:1.5}
		.st20 {fill:#ffd965;fill-opacity:1;stroke:#ffd965;stroke-opacity:1;stroke-width:0.37313432835821}
		.st21 {stroke:#000000;stroke-linecap:round;stroke-linejoin:round;stroke-width:3}
		.st22 {marker-end:url(#mrkr13-61);marker-start:url(#mrkr13-186);stroke:#000000;stroke-linecap:round;stroke-linejoin:round;stroke-width:1.5}
		.st23 {fill:#000000;stroke:none;stroke-linecap:butt;stroke-width:0.1}
		.st24 {fill:none;fill-rule:evenodd;font-size:12px;overflow:visible;stroke-linecap:square;stroke-miterlimit:3}
	]]>
	</style>

	<defs id="Markers">
		<g id="lend13">
			<path d="M 3 1 L 0 0 L 3 -1 L 3 1 " style="stroke:none"/>
		</g>
		<marker id="mrkr13-21" class="st8" v:arrowType="13" v:arrowSize="2" v:setback="7.8" refX="-7.8" orient="auto"
				markerUnits="strokeWidth" overflow="visible">
			<use xlink:href="#lend13" transform="scale(-2.68,-2.68) "/>
		</marker>
		<marker id="mrkr13-61" class="st11" v:arrowType="13" v:arrowSize="2" v:setback="7.8" refX="-7.8" orient="auto"
				markerUnits="strokeWidth" overflow="visible">
			<use xlink:href="#lend13" transform="scale(-2.68,-2.68) "/>
		</marker>
		<marker id="mrkr13-72" class="st11" v:arrowType="13" v:arrowSize="2" v:setback="0" refX="-0" orient="auto"
				markerUnits="strokeWidth" overflow="visible">
			<use xlink:href="#lend13" transform="scale(-2.68,-2.68) "/>
		</marker>
		<marker id="mrkr13-79" class="st14" v:arrowType="13" v:arrowSize="2" v:setback="7.8" refX="7.8" orient="auto"
				markerUnits="strokeWidth" overflow="visible">
			<use xlink:href="#lend13" transform="scale(2.68) "/>
		</marker>
		<marker id="mrkr13-81" class="st14" v:arrowType="13" v:arrowSize="2" v:setback="7.8" refX="-7.8" orient="auto"
				markerUnits="strokeWidth" overflow="visible">
			<use xlink:href="#lend13" transform="scale(-2.68,-2.68) "/>
		</marker>
		<marker id="mrkr13-148" class="st20" v:arrowType="13" v:arrowSize="2" v:setback="7.8" refX="7.8" orient="auto"
				markerUnits="strokeWidth" overflow="visible">
			<use xlink:href="#lend13" transform="scale(2.68) "/>
		</marker>
		<marker id="mrkr13-150" class="st20" v:arrowType="13" v:arrowSize="2" v:setback="7.8" refX="-7.8" orient="auto"
				markerUnits="strokeWidth" overflow="visible">
			<use xlink:href="#lend13" transform="scale(-2.68,-2.68) "/>
		</marker>
		<marker id="mrkr13-186" class="st11" v:arrowType="13" v:arrowSize="2" v:setback="7.8" refX="7.8" orient="auto"
				markerUnits="strokeWidth" overflow="visible">
			<use xlink:href="#lend13" transform="scale(2.68) "/>
		</marker>
	</defs>
	<g v:mID="0" v:index="1" v:groupContext="foregroundPage">
		<title>Overview</title>
		<v:pageProperties v:drawingScale="0.0393701" v:pageScale="0.0393701" v:drawingUnits="24" v:shadowOffsetX="9"
				v:shadowOffsetY="-9"/>
		<v:layer v:name="Connector" v:index="0"/>
		<g id="shape87-1" v:mID="87" v:groupContext="shape" transform="translate(-25.3543,300.472) rotate(-90)">
			<title>Sheet.87</title>
			<desc>Layer</desc>
			<v:textBlock v:margins="rect(4,4,4,4)" v:tabSpace="42.5197"/>
			<v:textRect cx="19.1339" cy="585.276" width="38.27" height="20"/>
			<rect x="0" y="575.276" width="38.2677" height="20" class="st1"/>
			<text x="5.94" y="588.88" class="st2" v:langID="1031"><v:paragraph v:horizAlign="1"/><v:tabList/>Layer</text>		</g>
		<g id="group44-4" transform="translate(433.453,-481.89)" v:mID="44" v:groupContext="group">
			<title>Sheet.44</title>
			<desc>Docker Hub</desc>
			<g id="shape45-5" v:mID="45" v:groupContext="shape">
				<title>Sheet.45</title>
				<path d="M58.77 542.38 C68.43 542.38 76.29 550.17 76.41 559.79 C76.36 560.15 76.33 560.5 76.32 560.87 L76.17 565.19
							 L80.25 566.61 C84.98 568.26 88.16 572.7 88.16 577.64 C88.16 584.13 82.89 589.4 76.41 589.4 L17.63 589.4
							 C11.15 589.4 5.88 584.13 5.88 577.64 C5.88 571.23 11.05 565.99 17.45 565.89 C17.72 565.93 18.01 565.96
							 18.3 565.98 L22.76 566.27 L24.23 562.05 C25.89 557.31 30.32 554.13 35.26 554.13 C35.84 554.13 36.47
							 554.2 37.32 554.35 L41.43 555.09 L43.48 551.45 C46.63 545.86 52.48 542.38 58.77 542.38 ZM58.77 536.5
							 C49.97 536.5 42.39 541.4 38.36 548.57 C37.35 548.39 36.33 548.26 35.26 548.26 C27.56 548.26 21.08 553.23
							 18.68 560.11 C18.33 560.09 17.99 560.01 17.63 560.01 C7.9 560.01 0 567.91 0 577.64 C0 587.38 7.9 595.28
							 17.63 595.28 L76.41 595.28 C86.14 595.28 94.04 587.38 94.04 577.64 C94.04 569.94 89.07 563.45 82.18
							 561.06 C82.19 560.7 82.28 560.37 82.28 560.01 C82.28 547.03 71.76 536.5 58.77 536.5 Z" class="st3"/>
			</g>
			<g id="shape44-7" v:mID="44" v:groupContext="groupContent">
				<v:textBlock v:margins="rect(0,0,0,0)" v:tabSpace="42.5197"/>
				<v:textRect cx="47.0197" cy="571.558" width="94.04" height="58.7746"/>
				<text x="29.82" y="567.96" class="st2" v:langID="1031"><v:paragraph v:horizAlign="1"/><v:tabList/>Docker<v:lf/><tspan
							x="36.98" dy="1.2em" class="st4">Hub</tspan></text>			</g>
		</g>
		<g id="group63-10" transform="translate(549.496,-70.8661)" v:mID="63" v:groupContext="group">
			<title>Sheet.63</title>
			<g id="shape57-11" v:mID="57" v:groupContext="shape" transform="translate(0,-54.7448)">
				<title>Sheet.57</title>
				<desc>Basis Image</desc>
				<v:textBlock v:margins="rect(4,4,4,4)" v:tabSpace="42.5197"/>
				<v:textRect cx="47.0197" cy="583.076" width="94.04" height="24.0909"/>
				<rect x="0" y="571.031" width="94.0394" height="24.2449" class="st5"/>
				<text x="17.77" y="586.68" class="st6" v:langID="1031"><v:paragraph v:horizAlign="1"/><v:tabList/>Basis Image</text>			</g>
			<g id="shape58-14" v:mID="58" v:groupContext="shape">
				<title>Sheet.58</title>
				<rect x="0" y="540.204" width="94.0394" height="55.0717" class="st5"/>
			</g>
		</g>
		<g id="shape64-16" v:mID="64" v:groupContext="shape" v:layerMember="0" transform="translate(621.709,-96.6347)">
			<title>Dynamic connector</title>
			<path d="M0 595.28 C9.95 595.28 10.59 579.68 65.89 577.69 L66.25 577.69" class="st7"/>
		</g>
		<g id="group66-22" transform="translate(549.496,-162.992)" v:mID="66" v:groupContext="group">
			<title>Sheet.66</title>
			<g id="shape61-23" v:mID="61" v:groupContext="shape" transform="translate(0,-54.7448)">
				<title>Sheet.61</title>
				<desc>Image</desc>
				<v:textBlock v:margins="rect(4,4,4,4)" v:tabSpace="42.5197"/>
				<v:textRect cx="47.0197" cy="583.076" width="94.04" height="24.0909"/>
				<rect x="0" y="571.031" width="94.0394" height="24.2449" class="st5"/>
				<text x="31.71" y="586.68" class="st6" v:langID="1031"><v:paragraph v:horizAlign="1"/><v:tabList/>Image</text>			</g>
			<g id="shape62-26" v:mID="62" v:groupContext="shape">
				<title>Sheet.62</title>
				<rect x="0" y="540.204" width="94.0394" height="55.0717" class="st5"/>
			</g>
		</g>
		<g id="group69-28" transform="translate(699.661,-193.412)" v:mID="69" v:groupContext="group">
			<title>Sheet.69</title>
			<g id="shape43-29" v:mID="43" v:groupContext="shape" transform="translate(0,-54.7448)">
				<title>Sheet.43</title>
				<desc>Dockerfile</desc>
				<v:textBlock v:margins="rect(4,4,4,4)" v:tabSpace="42.5197"/>
				<v:textRect cx="47.0197" cy="583.076" width="94.04" height="24.0909"/>
				<rect x="0" y="571.031" width="94.0394" height="24.2449" class="st9"/>
				<text x="21.6" y="586.68" class="st6" v:langID="1031"><v:paragraph v:horizAlign="1"/><v:tabList/>Dockerfile</text>			</g>
			<g id="shape51-32" v:mID="51" v:groupContext="shape">
				<title>Sheet.51</title>
				<desc>FROM … RUN … RUN ...</desc>
				<v:textBlock v:margins="rect(4,4,4,4)" v:tabSpace="42.5197" v:verticalAlign="0"/>
				<v:textRect cx="47.0197" cy="567.565" width="94.04" height="54.7219"/>
				<rect x="0" y="540.204" width="94.0394" height="55.0717" class="st9"/>
				<text x="4" y="555" class="st2" v:langID="1031"><v:paragraph/><v:tabList/>FROM …<v:lf/><tspan x="4" dy="1.2em"
							class="st4">RUN …<v:newlineChar/></tspan><tspan x="4" dy="1.2em" class="st4">RUN </tspan>...</text>			</g>
		</g>
		<g id="group70-37" transform="translate(699.661,-70.8661)" v:mID="70" v:groupContext="group">
			<title>Sheet.70</title>
			<g id="shape54-38" v:mID="54" v:groupContext="shape" transform="translate(0,-54.7448)">
				<title>Sheet.54</title>
				<desc>Dockerfile</desc>
				<v:textBlock v:margins="rect(4,4,4,4)" v:tabSpace="42.5197"/>
				<v:textRect cx="47.0197" cy="583.076" width="94.04" height="24.0909"/>
				<rect x="0" y="571.031" width="94.0394" height="24.2449" class="st9"/>
				<text x="21.6" y="586.68" class="st6" v:langID="1031"><v:paragraph v:horizAlign="1"/><v:tabList/>Dockerfile</text>			</g>
			<g id="shape55-41" v:mID="55" v:groupContext="shape">
				<title>Sheet.55</title>
				<desc>FROM scratch COPY ...</desc>
				<v:textBlock v:margins="rect(4,4,4,4)" v:tabSpace="42.5197" v:verticalAlign="0"/>
				<v:textRect cx="47.0197" cy="567.565" width="94.04" height="54.7219"/>
				<rect x="0" y="540.204" width="94.0394" height="55.0717" class="st9"/>
				<text x="4" y="555" class="st2" v:langID="1031"><v:paragraph/><v:tabList/>FROM scratch<v:lf/><tspan x="4"
							dy="1.2em" class="st4">COPY </tspan>...</text>			</g>
		</g>
		<g id="shape72-45" v:mID="72" v:groupContext="shape" v:layerMember="0" transform="translate(621.709,-191.595)">
			<title>Dynamic connector.72</title>
			<path d="M0 595.28 C46.45 596.14 15.43 553.87 65.91 548.27 L66.27 548.25" class="st7"/>
		</g>
		<g id="group78-50" transform="translate(549.496,-255.118)" v:mID="78" v:groupContext="group">
			<title>Sheet.78</title>
			<g id="shape74-51" v:mID="74" v:groupContext="shape" transform="translate(0,-110.401)">
				<title>Sheet.74</title>
				<desc>Image</desc>
				<v:textBlock v:margins="rect(4,4,4,4)" v:tabSpace="42.5197"/>
				<v:textRect cx="47.0197" cy="583.076" width="94.04" height="24.0909"/>
				<rect x="0" y="571.031" width="94.0394" height="24.2449" class="st5"/>
				<text x="31.71" y="586.68" class="st6" v:langID="1031"><v:paragraph v:horizAlign="1"/><v:tabList/>Image</text>			</g>
			<g id="shape75-54" v:mID="75" v:groupContext="shape">
				<title>Sheet.75</title>
				<rect x="0" y="484.548" width="94.0394" height="110.728" class="st5"/>
			</g>
		</g>
		<g id="shape81-56" v:mID="81" v:groupContext="shape" v:layerMember="0" transform="translate(793.701,-100.25)">
			<title>Dynamic connector.81</title>
			<path d="M0 595.28 C10.63 595.28 10.63 581.09 10.63 566.91 C10.63 536.13 10.63 505.35 -159.93 503.98 L-160.29 503.98"
					class="st10"/>
		</g>
		<g id="shape82-62" v:mID="82" v:groupContext="shape" v:layerMember="0" transform="translate(793.701,-225.043)">
			<title>Dynamic connector.82</title>
			<path d="M0 595.28 C10.63 595.28 10.63 588.67 10.63 582 C10.63 573.33 10.63 564.53 10.63 558.02 C10.63 547.08 10.63 542.61
						 -1.05 539.73 C-21.09 534.8 -75.51 534.58 -159.93 534.57 L-160.29 534.57" class="st10"/>
		</g>
		<g id="shape83-67" v:mID="83" v:groupContext="shape" v:layerMember="0" transform="translate(793.701,-210.87)">
			<title>Dynamic connector.83</title>
			<path d="M0 595.28 C10.63 595.28 14.42 572.69 15.48 550.18 C17.34 510.37 10.63 470.83 -171.99 470.79" class="st12"/>
		</g>
		<g id="shape84-73" v:mID="84" v:groupContext="shape" v:layerMember="0" transform="translate(549.496,-389.764)">
			<title>Dynamic connector.84</title>
			<path d="M-11.68 594.57 L-12.04 594.55 C-19.06 593.32 -26.07 590.03 -30.69 581.2 C-38.2 566.82 -39.41 537.79 -39.6 515.21
						 L-39.6 514.85" class="st13"/>
		</g>
		<g id="shape85-82" v:mID="85" v:groupContext="shape" v:layerMember="0" transform="translate(549.496,-241.982)">
			<title>Dynamic connector.85</title>
			<path d="M-10.52 590.16 L-10.84 590 C-12.27 589.96 -13.75 589.96 -15.23 589.96 C-41.66 589.96 -68.09 589.96 -69 367.43
						 L-69 367.07" class="st13"/>
		</g>
		<g id="shape86-89" v:mID="86" v:groupContext="shape" v:layerMember="0" transform="translate(549.496,-149.856)">
			<title>Dynamic connector.86</title>
			<path d="M-10.61 590.34 L-10.94 590.19 C-14.32 589.96 -18.19 589.96 -22.05 589.96 C-59.76 589.96 -97.46 589.96 -98.39
						 275.3 L-98.39 274.94" class="st13"/>
		</g>
		<g id="group107-96" transform="translate(318.898,-49.8931)" v:mID="107" v:groupContext="group">
			<title>Sheet.107</title>
			<g id="group101-97" transform="translate(21.826,-12.4218)" v:mID="101" v:groupContext="group">
				<title>Sheet.101</title>
				<g id="shape102-98" v:mID="102" v:groupContext="shape">
					<title>Sheet.102</title>
					<path d="M48.28 567.56 L46.19 567.56 L46.19 560 L22.27 560 L18.07 554.13 L2.29 554.13 C1.03 554.13 0 555.16 0
								 556.42 L0 593.11 L0.01 593.11 C0 593.58 0.15 594.04 0.44 594.43 C0.85 594.97 1.48 595.28 2.15 595.28
								 L39.74 595.28 C40.71 595.28 41.57 594.62 41.8 593.75 L50.39 570.21 L50.39 570.06 C50.39 568.61 49.5
								 567.56 48.28 567.56 ZM44.51 561.68 L44.51 567.56 L37.79 567.56 L37.79 565.04 C37.79 564.58 37.41
								 564.2 36.95 564.2 C36.49 564.2 36.11 564.58 36.11 565.04 L36.11 567.56 L31.91 567.56 L31.91 565.04
								 C31.91 564.58 31.54 564.2 31.07 564.2 C30.61 564.2 30.23 564.58 30.23 565.04 L30.23 567.56 L26.03
								 567.56 L26.03 565.04 C26.03 564.58 25.66 564.2 25.19 564.2 C24.73 564.2 24.35 564.58 24.35 565.04
								 L24.35 567.56 L20.15 567.56 L20.15 565.04 C20.15 564.58 19.78 564.2 19.32 564.2 C18.85 564.2 18.48
								 564.58 18.48 565.04 L18.48 567.56 L14.28 567.56 L14.28 565.04 C14.28 564.58 13.9 564.2 13.44 564.2
								 C12.97 564.2 12.6 564.58 12.6 565.04 L12.6 567.56 L10.69 567.56 C10.57 567.56 10.45 567.57 10.34
								 567.59 C9.52 567.73 8.84 568.32 8.63 569.09 L8.37 569.82 L4.2 581.25 L4.2 566.72 L9.24 566.72 L9.24
								 561.68 L23.47 561.68 L44.51 561.68 ZM5.39 565.04 L7.56 562.87 L7.56 565.04 L5.39 565.04 ZM1.68 556.42
								 C1.68 556.08 1.96 555.81 2.29 555.81 L17.2 555.81 L20.2 560 L8.05 560 L2.52 565.54 L2.52 585.76
								 L1.68 588.05 L1.68 556.42 ZM40.2 593.25 C40.14 593.45 39.96 593.6 39.74 593.6 L2.15 593.6 C1.95
								 593.6 1.83 593.48 1.78 593.41 C1.72 593.34 1.64 593.19 1.67 593.07 L2.52 590.75 L2.52 590.75 L10.21
								 569.66 L10.23 569.59 C10.29 569.39 10.48 569.24 10.69 569.24 L46.19 569.24 L48.28 569.24 C48.6 569.24
								 48.68 569.7 48.7 569.93 L40.2 593.25 Z" class="st15"/>
				</g>
			</g>
			<g id="shape103-100" v:mID="103" v:groupContext="shape" transform="translate(0,-114.366)">
				<title>Sheet.103</title>
				<desc>Container</desc>
				<v:textBlock v:margins="rect(4,4,4,4)" v:tabSpace="42.5197"/>
				<v:textRect cx="47.0197" cy="583.076" width="94.04" height="24.0909"/>
				<rect x="0" y="571.031" width="94.0394" height="24.2449" class="st16"/>
				<text x="22.51" y="586.68" class="st6" v:langID="1031"><v:paragraph v:horizAlign="1"/><v:tabList/>Container</text>			</g>
			<g id="shape104-103" v:mID="104" v:groupContext="shape">
				<title>Sheet.104</title>
				<rect x="0" y="480.583" width="94.0394" height="114.693" class="st16"/>
			</g>
		</g>
		<g id="shape108-105" v:mID="108" v:groupContext="shape" v:layerMember="0" transform="translate(571.836,-330.431)">
			<title>Dynamic connector.108</title>
			<path d="M0 591.09 C-1.84 591.09 -1.84 589.13 -12.17 587.83 C-31.47 585.41 -86.83 585.3 -170.4 585.29 L-170.76 585.29"
					class="st7"/>
		</g>
		<g id="shape109-110" v:mID="109" v:groupContext="shape" v:layerMember="0" transform="translate(571.836,-334.621)">
			<title>Dynamic connector.109</title>
			<path d="M0 595.28 C-85.74 593.94 -111.14 653.93 -121.99 707.02 C-131.19 751.98 -129.96 792 -168.67 796.67 L-169.03 796.68"
					class="st7"/>
		</g>
		<g id="shape110-115" v:mID="110" v:groupContext="shape" transform="translate(520.516,-430.866)">
			<title>Sheet.110</title>
			<desc>Images</desc>
			<v:textBlock v:margins="rect(4,4,4,4)" v:tabSpace="42.5197"/>
			<v:textRect cx="76" cy="585.276" width="152" height="20"/>
			<rect x="0" y="575.276" width="152" height="20" class="st1"/>
			<text x="40.6" y="592.48" class="st17" v:langID="1031"><v:paragraph v:horizAlign="1"/><v:tabList/>Images</text>		</g>
		<g id="shape111-118" v:mID="111" v:groupContext="shape" transform="translate(289.917,-430.866)">
			<title>Sheet.111</title>
			<desc>Container</desc>
			<v:textBlock v:margins="rect(4,4,4,4)" v:tabSpace="42.5197"/>
			<v:textRect cx="76" cy="585.276" width="152" height="20"/>
			<rect x="0" y="575.276" width="152" height="20" class="st1"/>
			<text x="26.98" y="592.48" class="st17" v:langID="1031"><v:paragraph v:horizAlign="1"/><v:tabList/>Container</text>		</g>
		<g id="group123-121" transform="translate(25.83,-251.551)" v:mID="123" v:groupContext="group">
			<title>Sheet.123</title>
			<g id="shape124-122" v:mID="124" v:groupContext="shape">
				<title>Sheet.124</title>
				<path d="M48.28 567.56 L46.19 567.56 L46.19 560 L22.27 560 L18.07 554.13 L2.29 554.13 C1.03 554.13 0 555.16 0 556.42
							 L0 593.11 L0.01 593.11 C0 593.58 0.15 594.04 0.44 594.43 C0.85 594.97 1.48 595.28 2.15 595.28 L39.74
							 595.28 C40.71 595.28 41.57 594.62 41.8 593.75 L50.39 570.21 L50.39 570.06 C50.39 568.61 49.5 567.56
							 48.28 567.56 ZM44.51 561.68 L44.51 567.56 L37.79 567.56 L37.79 565.04 C37.79 564.58 37.41 564.2 36.95
							 564.2 C36.49 564.2 36.11 564.58 36.11 565.04 L36.11 567.56 L31.91 567.56 L31.91 565.04 C31.91 564.58
							 31.54 564.2 31.07 564.2 C30.61 564.2 30.23 564.58 30.23 565.04 L30.23 567.56 L26.03 567.56 L26.03 565.04
							 C26.03 564.58 25.66 564.2 25.19 564.2 C24.73 564.2 24.35 564.58 24.35 565.04 L24.35 567.56 L20.15 567.56
							 L20.15 565.04 C20.15 564.58 19.78 564.2 19.32 564.2 C18.85 564.2 18.48 564.58 18.48 565.04 L18.48 567.56
							 L14.28 567.56 L14.28 565.04 C14.28 564.58 13.9 564.2 13.44 564.2 C12.97 564.2 12.6 564.58 12.6 565.04
							 L12.6 567.56 L10.69 567.56 C10.57 567.56 10.45 567.57 10.34 567.59 C9.52 567.73 8.84 568.32 8.63 569.09
							 L8.37 569.82 L4.2 581.25 L4.2 566.72 L9.24 566.72 L9.24 561.68 L23.47 561.68 L44.51 561.68 ZM5.39 565.04
							 L7.56 562.87 L7.56 565.04 L5.39 565.04 ZM1.68 556.42 C1.68 556.08 1.96 555.81 2.29 555.81 L17.2 555.81
							 L20.2 560 L8.05 560 L2.52 565.54 L2.52 585.76 L1.68 588.05 L1.68 556.42 ZM40.2 593.25 C40.14 593.45
							 39.96 593.6 39.74 593.6 L2.15 593.6 C1.95 593.6 1.83 593.48 1.78 593.41 C1.72 593.34 1.64 593.19 1.67
							 593.07 L2.52 590.75 L2.52 590.75 L10.21 569.66 L10.23 569.59 C10.29 569.39 10.48 569.24 10.69 569.24
							 L46.19 569.24 L48.28 569.24 C48.6 569.24 48.68 569.7 48.7 569.93 L40.2 593.25 Z" class="st15"/>
			</g>
		</g>
		<g id="group131-124" transform="translate(153.071,-85.0394)" v:mID="131" v:groupContext="group">
			<title>Sheet.131</title>
			<g id="group113-125" transform="translate(21.826,-111.921)" v:mID="113" v:groupContext="group">
				<title>Sheet.113</title>
				<g id="shape114-126" v:mID="114" v:groupContext="shape">
					<title>Sheet.114</title>
					<path d="M48.28 567.56 L46.19 567.56 L46.19 560 L22.27 560 L18.07 554.13 L2.29 554.13 C1.03 554.13 0 555.16 0
								 556.42 L0 593.11 L0.01 593.11 C0 593.58 0.15 594.04 0.44 594.43 C0.85 594.97 1.48 595.28 2.15 595.28
								 L39.74 595.28 C40.71 595.28 41.57 594.62 41.8 593.75 L50.39 570.21 L50.39 570.06 C50.39 568.61 49.5
								 567.56 48.28 567.56 ZM44.51 561.68 L44.51 567.56 L37.79 567.56 L37.79 565.04 C37.79 564.58 37.41
								 564.2 36.95 564.2 C36.49 564.2 36.11 564.58 36.11 565.04 L36.11 567.56 L31.91 567.56 L31.91 565.04
								 C31.91 564.58 31.54 564.2 31.07 564.2 C30.61 564.2 30.23 564.58 30.23 565.04 L30.23 567.56 L26.03
								 567.56 L26.03 565.04 C26.03 564.58 25.66 564.2 25.19 564.2 C24.73 564.2 24.35 564.58 24.35 565.04
								 L24.35 567.56 L20.15 567.56 L20.15 565.04 C20.15 564.58 19.78 564.2 19.32 564.2 C18.85 564.2 18.48
								 564.58 18.48 565.04 L18.48 567.56 L14.28 567.56 L14.28 565.04 C14.28 564.58 13.9 564.2 13.44 564.2
								 C12.97 564.2 12.6 564.58 12.6 565.04 L12.6 567.56 L10.69 567.56 C10.57 567.56 10.45 567.57 10.34
								 567.59 C9.52 567.73 8.84 568.32 8.63 569.09 L8.37 569.82 L4.2 581.25 L4.2 566.72 L9.24 566.72 L9.24
								 561.68 L23.47 561.68 L44.51 561.68 ZM5.39 565.04 L7.56 562.87 L7.56 565.04 L5.39 565.04 ZM1.68 556.42
								 C1.68 556.08 1.96 555.81 2.29 555.81 L17.2 555.81 L20.2 560 L8.05 560 L2.52 565.54 L2.52 585.76
								 L1.68 588.05 L1.68 556.42 ZM40.2 593.25 C40.14 593.45 39.96 593.6 39.74 593.6 L2.15 593.6 C1.95
								 593.6 1.83 593.48 1.78 593.41 C1.72 593.34 1.64 593.19 1.67 593.07 L2.52 590.75 L2.52 590.75 L10.21
								 569.66 L10.23 569.59 C10.29 569.39 10.48 569.24 10.69 569.24 L46.19 569.24 L48.28 569.24 C48.6 569.24
								 48.68 569.7 48.7 569.93 L40.2 593.25 Z" class="st15"/>
				</g>
			</g>
			<g id="shape115-128" v:mID="115" v:groupContext="shape" transform="translate(0,-213.865)">
				<title>Sheet.115</title>
				<desc>Volume</desc>
				<v:textBlock v:margins="rect(4,4,4,4)" v:tabSpace="42.5197"/>
				<v:textRect cx="47.0197" cy="583.076" width="94.04" height="24.0909"/>
				<rect x="0" y="571.031" width="94.0394" height="24.2449" class="st18"/>
				<text x="27.65" y="586.68" class="st6" v:langID="1031"><v:paragraph v:horizAlign="1"/><v:tabList/>Volume</text>			</g>
			<g id="shape116-131" v:mID="116" v:groupContext="shape">
				<title>Sheet.116</title>
				<rect x="0" y="381.083" width="94.0394" height="214.192" class="st18"/>
			</g>
			<g id="group125-133" transform="translate(21.826,-163.677)" v:mID="125" v:groupContext="group">
				<title>Sheet.125</title>
				<g id="shape126-134" v:mID="126" v:groupContext="shape">
					<title>Sheet.126</title>
					<path d="M48.28 567.56 L46.19 567.56 L46.19 560 L22.27 560 L18.07 554.13 L2.29 554.13 C1.03 554.13 0 555.16 0
								 556.42 L0 593.11 L0.01 593.11 C0 593.58 0.15 594.04 0.44 594.43 C0.85 594.97 1.48 595.28 2.15 595.28
								 L39.74 595.28 C40.71 595.28 41.57 594.62 41.8 593.75 L50.39 570.21 L50.39 570.06 C50.39 568.61 49.5
								 567.56 48.28 567.56 ZM44.51 561.68 L44.51 567.56 L37.79 567.56 L37.79 565.04 C37.79 564.58 37.41
								 564.2 36.95 564.2 C36.49 564.2 36.11 564.58 36.11 565.04 L36.11 567.56 L31.91 567.56 L31.91 565.04
								 C31.91 564.58 31.54 564.2 31.07 564.2 C30.61 564.2 30.23 564.58 30.23 565.04 L30.23 567.56 L26.03
								 567.56 L26.03 565.04 C26.03 564.58 25.66 564.2 25.19 564.2 C24.73 564.2 24.35 564.58 24.35 565.04
								 L24.35 567.56 L20.15 567.56 L20.15 565.04 C20.15 564.58 19.78 564.2 19.32 564.2 C18.85 564.2 18.48
								 564.58 18.48 565.04 L18.48 567.56 L14.28 567.56 L14.28 565.04 C14.28 564.58 13.9 564.2 13.44 564.2
								 C12.97 564.2 12.6 564.58 12.6 565.04 L12.6 567.56 L10.69 567.56 C10.57 567.56 10.45 567.57 10.34
								 567.59 C9.52 567.73 8.84 568.32 8.63 569.09 L8.37 569.82 L4.2 581.25 L4.2 566.72 L9.24 566.72 L9.24
								 561.68 L23.47 561.68 L44.51 561.68 ZM5.39 565.04 L7.56 562.87 L7.56 565.04 L5.39 565.04 ZM1.68 556.42
								 C1.68 556.08 1.96 555.81 2.29 555.81 L17.2 555.81 L20.2 560 L8.05 560 L2.52 565.54 L2.52 585.76
								 L1.68 588.05 L1.68 556.42 ZM40.2 593.25 C40.14 593.45 39.96 593.6 39.74 593.6 L2.15 593.6 C1.95
								 593.6 1.83 593.48 1.78 593.41 C1.72 593.34 1.64 593.19 1.67 593.07 L2.52 590.75 L2.52 590.75 L10.21
								 569.66 L10.23 569.59 C10.29 569.39 10.48 569.24 10.69 569.24 L46.19 569.24 L48.28 569.24 C48.6 569.24
								 48.68 569.7 48.7 569.93 L40.2 593.25 Z" class="st15"/>
				</g>
			</g>
			<g id="group127-136" transform="translate(21.826,-60.1654)" v:mID="127" v:groupContext="group">
				<title>Sheet.127</title>
				<g id="shape128-137" v:mID="128" v:groupContext="shape">
					<title>Sheet.128</title>
					<path d="M48.28 567.56 L46.19 567.56 L46.19 560 L22.27 560 L18.07 554.13 L2.29 554.13 C1.03 554.13 0 555.16 0
								 556.42 L0 593.11 L0.01 593.11 C0 593.58 0.15 594.04 0.44 594.43 C0.85 594.97 1.48 595.28 2.15 595.28
								 L39.74 595.28 C40.71 595.28 41.57 594.62 41.8 593.75 L50.39 570.21 L50.39 570.06 C50.39 568.61 49.5
								 567.56 48.28 567.56 ZM44.51 561.68 L44.51 567.56 L37.79 567.56 L37.79 565.04 C37.79 564.58 37.41
								 564.2 36.95 564.2 C36.49 564.2 36.11 564.58 36.11 565.04 L36.11 567.56 L31.91 567.56 L31.91 565.04
								 C31.91 564.58 31.54 564.2 31.07 564.2 C30.61 564.2 30.23 564.58 30.23 565.04 L30.23 567.56 L26.03
								 567.56 L26.03 565.04 C26.03 564.58 25.66 564.2 25.19 564.2 C24.73 564.2 24.35 564.58 24.35 565.04
								 L24.35 567.56 L20.15 567.56 L20.15 565.04 C20.15 564.58 19.78 564.2 19.32 564.2 C18.85 564.2 18.48
								 564.58 18.48 565.04 L18.48 567.56 L14.28 567.56 L14.28 565.04 C14.28 564.58 13.9 564.2 13.44 564.2
								 C12.97 564.2 12.6 564.58 12.6 565.04 L12.6 567.56 L10.69 567.56 C10.57 567.56 10.45 567.57 10.34
								 567.59 C9.52 567.73 8.84 568.32 8.63 569.09 L8.37 569.82 L4.2 581.25 L4.2 566.72 L9.24 566.72 L9.24
								 561.68 L23.47 561.68 L44.51 561.68 ZM5.39 565.04 L7.56 562.87 L7.56 565.04 L5.39 565.04 ZM1.68 556.42
								 C1.68 556.08 1.96 555.81 2.29 555.81 L17.2 555.81 L20.2 560 L8.05 560 L2.52 565.54 L2.52 585.76
								 L1.68 588.05 L1.68 556.42 ZM40.2 593.25 C40.14 593.45 39.96 593.6 39.74 593.6 L2.15 593.6 C1.95
								 593.6 1.83 593.48 1.78 593.41 C1.72 593.34 1.64 593.19 1.67 593.07 L2.52 590.75 L2.52 590.75 L10.21
								 569.66 L10.23 569.59 C10.29 569.39 10.48 569.24 10.69 569.24 L46.19 569.24 L48.28 569.24 C48.6 569.24
								 48.68 569.7 48.7 569.93 L40.2 593.25 Z" class="st15"/>
				</g>
			</g>
			<g id="group129-139" transform="translate(21.826,-7.77165)" v:mID="129" v:groupContext="group">
				<title>Sheet.129</title>
				<g id="shape130-140" v:mID="130" v:groupContext="shape">
					<title>Sheet.130</title>
					<path d="M48.28 567.56 L46.19 567.56 L46.19 560 L22.27 560 L18.07 554.13 L2.29 554.13 C1.03 554.13 0 555.16 0
								 556.42 L0 593.11 L0.01 593.11 C0 593.58 0.15 594.04 0.44 594.43 C0.85 594.97 1.48 595.28 2.15 595.28
								 L39.74 595.28 C40.71 595.28 41.57 594.62 41.8 593.75 L50.39 570.21 L50.39 570.06 C50.39 568.61 49.5
								 567.56 48.28 567.56 ZM44.51 561.68 L44.51 567.56 L37.79 567.56 L37.79 565.04 C37.79 564.58 37.41
								 564.2 36.95 564.2 C36.49 564.2 36.11 564.58 36.11 565.04 L36.11 567.56 L31.91 567.56 L31.91 565.04
								 C31.91 564.58 31.54 564.2 31.07 564.2 C30.61 564.2 30.23 564.58 30.23 565.04 L30.23 567.56 L26.03
								 567.56 L26.03 565.04 C26.03 564.58 25.66 564.2 25.19 564.2 C24.73 564.2 24.35 564.58 24.35 565.04
								 L24.35 567.56 L20.15 567.56 L20.15 565.04 C20.15 564.58 19.78 564.2 19.32 564.2 C18.85 564.2 18.48
								 564.58 18.48 565.04 L18.48 567.56 L14.28 567.56 L14.28 565.04 C14.28 564.58 13.9 564.2 13.44 564.2
								 C12.97 564.2 12.6 564.58 12.6 565.04 L12.6 567.56 L10.69 567.56 C10.57 567.56 10.45 567.57 10.34
								 567.59 C9.52 567.73 8.84 568.32 8.63 569.09 L8.37 569.82 L4.2 581.25 L4.2 566.72 L9.24 566.72 L9.24
								 561.68 L23.47 561.68 L44.51 561.68 ZM5.39 565.04 L7.56 562.87 L7.56 565.04 L5.39 565.04 ZM1.68 556.42
								 C1.68 556.08 1.96 555.81 2.29 555.81 L17.2 555.81 L20.2 560 L8.05 560 L2.52 565.54 L2.52 585.76
								 L1.68 588.05 L1.68 556.42 ZM40.2 593.25 C40.14 593.45 39.96 593.6 39.74 593.6 L2.15 593.6 C1.95
								 593.6 1.83 593.48 1.78 593.41 C1.72 593.34 1.64 593.19 1.67 593.07 L2.52 590.75 L2.52 590.75 L10.21
								 569.66 L10.23 569.59 C10.29 569.39 10.48 569.24 10.69 569.24 L46.19 569.24 L48.28 569.24 C48.6 569.24
								 48.68 569.7 48.7 569.93 L40.2 593.25 Z" class="st15"/>
				</g>
			</g>
		</g>
		<g id="shape132-142" v:mID="132" v:groupContext="shape" v:layerMember="0" transform="translate(340.724,-290.551)">
			<title>Dynamic connector.132</title>
			<path d="M-10.43 600.58 L-10.75 600.74 C-20.91 607.08 -42.14 616.8 -105.55 617.89 L-105.91 617.89" class="st19"/>
		</g>
		<g id="shape133-151" v:mID="133" v:groupContext="shape" v:layerMember="0" transform="translate(340.724,-82.2047)">
			<title>Dynamic connector.133</title>
			<path d="M-11.27 592.15 L-11.62 592.05 C-23.17 586.83 -38.07 575.82 -48.13 563.1 C-64.25 542.73 -67.99 517.96 -105.57
						 513.77 L-105.93 513.75" class="st19"/>
		</g>
		<g id="shape137-158" v:mID="137" v:groupContext="shape" v:layerMember="0" transform="translate(340.724,-239.528)">
			<title>Dynamic connector.137</title>
			<path d="M-10.36 600.7 L-10.68 600.87 C-20.81 607.41 -42 617.49 -105.55 618.62 L-105.91 618.62" class="st19"/>
		</g>
		<g id="shape138-165" v:mID="138" v:groupContext="shape" transform="translate(-422.205,432.283) rotate(-90)">
			<title>Sheet.138</title>
			<desc>Directory / File</desc>
			<v:textBlock v:margins="rect(4,4,4,4)" v:tabSpace="42.5197"/>
			<v:textRect cx="41.1024" cy="585.276" width="82.21" height="20"/>
			<rect x="0" y="575.276" width="82.2047" height="20" class="st1"/>
			<text x="4.91" y="588.88" class="st2" v:langID="1031"><v:paragraph v:horizAlign="1"/><v:tabList/>Directory / File</text>		</g>
		<g id="shape139-168" v:mID="139" v:groupContext="shape" transform="translate(124.091,-430.866)">
			<title>Sheet.139</title>
			<desc>Volume</desc>
			<v:textBlock v:margins="rect(4,4,4,4)" v:tabSpace="42.5197"/>
			<v:textRect cx="76" cy="585.276" width="152" height="20"/>
			<rect x="0" y="575.276" width="152" height="20" class="st1"/>
			<text x="37.26" y="592.48" class="st17" v:langID="1031"><v:paragraph v:horizAlign="1"/><v:tabList/>Volume</text>		</g>
		<g id="shape140-171" v:mID="140" v:groupContext="shape" transform="translate(17.0079,-190.208)">
			<title>Sheet.140</title>
			<path d="M0 456.66 L68.03 456.66 L68.03 595.28 L0 595.28" class="st21"/>
		</g>
		<g id="shape141-174" v:mID="141" v:groupContext="shape" transform="translate(18,-301.811)">
			<title>Sheet.141</title>
			<desc>OS</desc>
			<v:textBlock v:margins="rect(4,4,4,4)" v:tabSpace="42.5197"/>
			<v:textRect cx="33.5197" cy="585.276" width="67.04" height="20"/>
			<rect x="0" y="575.276" width="67.0394" height="20" class="st1"/>
			<text x="19.73" y="592.48" class="st17" v:langID="1031"><v:paragraph v:horizAlign="1"/><v:tabList/>OS</text>		</g>
		<g id="group142-177" transform="translate(25.83,-201.291)" v:mID="142" v:groupContext="group">
			<title>Sheet.142</title>
			<g id="shape143-178" v:mID="143" v:groupContext="shape">
				<title>Sheet.143</title>
				<path d="M48.28 567.56 L46.19 567.56 L46.19 560 L22.27 560 L18.07 554.13 L2.29 554.13 C1.03 554.13 0 555.16 0 556.42
							 L0 593.11 L0.01 593.11 C0 593.58 0.15 594.04 0.44 594.43 C0.85 594.97 1.48 595.28 2.15 595.28 L39.74
							 595.28 C40.71 595.28 41.57 594.62 41.8 593.75 L50.39 570.21 L50.39 570.06 C50.39 568.61 49.5 567.56
							 48.28 567.56 ZM44.51 561.68 L44.51 567.56 L37.79 567.56 L37.79 565.04 C37.79 564.58 37.41 564.2 36.95
							 564.2 C36.49 564.2 36.11 564.58 36.11 565.04 L36.11 567.56 L31.91 567.56 L31.91 565.04 C31.91 564.58
							 31.54 564.2 31.07 564.2 C30.61 564.2 30.23 564.58 30.23 565.04 L30.23 567.56 L26.03 567.56 L26.03 565.04
							 C26.03 564.58 25.66 564.2 25.19 564.2 C24.73 564.2 24.35 564.58 24.35 565.04 L24.35 567.56 L20.15 567.56
							 L20.15 565.04 C20.15 564.58 19.78 564.2 19.32 564.2 C18.85 564.2 18.48 564.58 18.48 565.04 L18.48 567.56
							 L14.28 567.56 L14.28 565.04 C14.28 564.58 13.9 564.2 13.44 564.2 C12.97 564.2 12.6 564.58 12.6 565.04
							 L12.6 567.56 L10.69 567.56 C10.57 567.56 10.45 567.57 10.34 567.59 C9.52 567.73 8.84 568.32 8.63 569.09
							 L8.37 569.82 L4.2 581.25 L4.2 566.72 L9.24 566.72 L9.24 561.68 L23.47 561.68 L44.51 561.68 ZM5.39 565.04
							 L7.56 562.87 L7.56 565.04 L5.39 565.04 ZM1.68 556.42 C1.68 556.08 1.96 555.81 2.29 555.81 L17.2 555.81
							 L20.2 560 L8.05 560 L2.52 565.54 L2.52 585.76 L1.68 588.05 L1.68 556.42 ZM40.2 593.25 C40.14 593.45
							 39.96 593.6 39.74 593.6 L2.15 593.6 C1.95 593.6 1.83 593.48 1.78 593.41 C1.72 593.34 1.64 593.19 1.67
							 593.07 L2.52 590.75 L2.52 590.75 L10.21 569.66 L10.23 569.59 C10.29 569.39 10.48 569.24 10.69 569.24
							 L46.19 569.24 L48.28 569.24 C48.6 569.24 48.68 569.7 48.7 569.93 L40.2 593.25 Z" class="st15"/>
			</g>
		</g>
		<g id="shape144-180" v:mID="144" v:groupContext="shape" v:layerMember="0" transform="translate(174.897,-262.551)">
			<title>Dynamic connector.144</title>
			<path d="M-11.68 588.49 L-12.04 588.47 C-13.05 588.29 -14.38 588.1 -16.43 587.95 C-25.85 587.23 -50.56 587.16 -88.79
						 587.16 L-89.15 587.16" class="st22"/>
		</g>
		<g id="shape145-188" v:mID="145" v:groupContext="shape" v:layerMember="0" transform="translate(174.897,-112.701)">
			<title>Dynamic connector.145</title>
			<path d="M-10.06 589.3 L-10.37 589.12 C-19.71 579.52 -30.26 560.23 -37.19 542.3 C-47.63 515.27 -49.83 491.36 -88.8 487.97
						 L-89.16 487.95" class="st22"/>
		</g>
		<g id="group148-195" transform="translate(318.898,-209.764)" v:mID="148" v:groupContext="group">
			<title>Sheet.148</title>
			<g id="group6-196" transform="translate(21.826,-60.8976)" v:mID="6" v:groupContext="group">
				<title>Sheet.6</title>
				<g id="shape7-197" v:mID="7" v:groupContext="shape">
					<title>Sheet.7</title>
					<path d="M48.28 567.56 L46.19 567.56 L46.19 560 L22.27 560 L18.07 554.13 L2.29 554.13 C1.03 554.13 0 555.16 0
								 556.42 L0 593.11 L0.01 593.11 C0 593.58 0.15 594.04 0.44 594.43 C0.85 594.97 1.48 595.28 2.15 595.28
								 L39.74 595.28 C40.71 595.28 41.57 594.62 41.8 593.75 L50.39 570.21 L50.39 570.06 C50.39 568.61 49.5
								 567.56 48.28 567.56 ZM44.51 561.68 L44.51 567.56 L37.79 567.56 L37.79 565.04 C37.79 564.58 37.41
								 564.2 36.95 564.2 C36.49 564.2 36.11 564.58 36.11 565.04 L36.11 567.56 L31.91 567.56 L31.91 565.04
								 C31.91 564.58 31.54 564.2 31.07 564.2 C30.61 564.2 30.23 564.58 30.23 565.04 L30.23 567.56 L26.03
								 567.56 L26.03 565.04 C26.03 564.58 25.66 564.2 25.19 564.2 C24.73 564.2 24.35 564.58 24.35 565.04
								 L24.35 567.56 L20.15 567.56 L20.15 565.04 C20.15 564.58 19.78 564.2 19.32 564.2 C18.85 564.2 18.48
								 564.58 18.48 565.04 L18.48 567.56 L14.28 567.56 L14.28 565.04 C14.28 564.58 13.9 564.2 13.44 564.2
								 C12.97 564.2 12.6 564.58 12.6 565.04 L12.6 567.56 L10.69 567.56 C10.57 567.56 10.45 567.57 10.34
								 567.59 C9.52 567.73 8.84 568.32 8.63 569.09 L8.37 569.82 L4.2 581.25 L4.2 566.72 L9.24 566.72 L9.24
								 561.68 L23.47 561.68 L44.51 561.68 ZM5.39 565.04 L7.56 562.87 L7.56 565.04 L5.39 565.04 ZM1.68 556.42
								 C1.68 556.08 1.96 555.81 2.29 555.81 L17.2 555.81 L20.2 560 L8.05 560 L2.52 565.54 L2.52 585.76
								 L1.68 588.05 L1.68 556.42 ZM40.2 593.25 C40.14 593.45 39.96 593.6 39.74 593.6 L2.15 593.6 C1.95
								 593.6 1.83 593.48 1.78 593.41 C1.72 593.34 1.64 593.19 1.67 593.07 L2.52 590.75 L2.52 590.75 L10.21
								 569.66 L10.23 569.59 C10.29 569.39 10.48 569.24 10.69 569.24 L46.19 569.24 L48.28 569.24 C48.6 569.24
								 48.68 569.7 48.7 569.93 L40.2 593.25 Z" class="st15"/>
				</g>
			</g>
			<g id="shape89-199" v:mID="89" v:groupContext="shape" transform="translate(0,-162.842)">
				<title>Sheet.89</title>
				<desc>Container</desc>
				<v:textBlock v:margins="rect(4,4,4,4)" v:tabSpace="42.5197"/>
				<v:textRect cx="47.0197" cy="583.076" width="94.04" height="24.0909"/>
				<rect x="0" y="571.031" width="94.0394" height="24.2449" class="st16"/>
				<text x="22.51" y="586.68" class="st6" v:langID="1031"><v:paragraph v:horizAlign="1"/><v:tabList/>Container</text>			</g>
			<g id="shape90-202" v:mID="90" v:groupContext="shape">
				<title>Sheet.90</title>
				<rect x="0" y="432.107" width="94.0394" height="163.169" class="st16"/>
			</g>
			<g id="group134-204" transform="translate(21.826,-9.87402)" v:mID="134" v:groupContext="group">
				<title>Sheet.134</title>
				<g id="shape135-205" v:mID="135" v:groupContext="shape">
					<title>Sheet.135</title>
					<path d="M48.28 567.56 L46.19 567.56 L46.19 560 L22.27 560 L18.07 554.13 L2.29 554.13 C1.03 554.13 0 555.16 0
								 556.42 L0 593.11 L0.01 593.11 C0 593.58 0.15 594.04 0.44 594.43 C0.85 594.97 1.48 595.28 2.15 595.28
								 L39.74 595.28 C40.71 595.28 41.57 594.62 41.8 593.75 L50.39 570.21 L50.39 570.06 C50.39 568.61 49.5
								 567.56 48.28 567.56 ZM44.51 561.68 L44.51 567.56 L37.79 567.56 L37.79 565.04 C37.79 564.58 37.41
								 564.2 36.95 564.2 C36.49 564.2 36.11 564.58 36.11 565.04 L36.11 567.56 L31.91 567.56 L31.91 565.04
								 C31.91 564.58 31.54 564.2 31.07 564.2 C30.61 564.2 30.23 564.58 30.23 565.04 L30.23 567.56 L26.03
								 567.56 L26.03 565.04 C26.03 564.58 25.66 564.2 25.19 564.2 C24.73 564.2 24.35 564.58 24.35 565.04
								 L24.35 567.56 L20.15 567.56 L20.15 565.04 C20.15 564.58 19.78 564.2 19.32 564.2 C18.85 564.2 18.48
								 564.58 18.48 565.04 L18.48 567.56 L14.28 567.56 L14.28 565.04 C14.28 564.58 13.9 564.2 13.44 564.2
								 C12.97 564.2 12.6 564.58 12.6 565.04 L12.6 567.56 L10.69 567.56 C10.57 567.56 10.45 567.57 10.34
								 567.59 C9.52 567.73 8.84 568.32 8.63 569.09 L8.37 569.82 L4.2 581.25 L4.2 566.72 L9.24 566.72 L9.24
								 561.68 L23.47 561.68 L44.51 561.68 ZM5.39 565.04 L7.56 562.87 L7.56 565.04 L5.39 565.04 ZM1.68 556.42
								 C1.68 556.08 1.96 555.81 2.29 555.81 L17.2 555.81 L20.2 560 L8.05 560 L2.52 565.54 L2.52 585.76
								 L1.68 588.05 L1.68 556.42 ZM40.2 593.25 C40.14 593.45 39.96 593.6 39.74 593.6 L2.15 593.6 C1.95
								 593.6 1.83 593.48 1.78 593.41 C1.72 593.34 1.64 593.19 1.67 593.07 L2.52 590.75 L2.52 590.75 L10.21
								 569.66 L10.23 569.59 C10.29 569.39 10.48 569.24 10.69 569.24 L46.19 569.24 L48.28 569.24 C48.6 569.24
								 48.68 569.7 48.7 569.93 L40.2 593.25 Z" class="st15"/>
				</g>
			</g>
			<g id="group146-207" transform="translate(20.0906,-107.107)" v:mID="146" v:groupContext="group">
				<title>Sheet.146</title>
				<g id="shape147-208" v:mID="147" v:groupContext="shape" transform="translate(0,1143.98) scale(1,-1)">
					<title>Sheet.147</title>
					<path d="M15.48 593.08 C10.41 591.9 6.82 590.29 4.33 587.94 C0.95 584.86 0.51 583.1 0.51 571.51 L0.51 560.51
								 L3.23 558.16 C12.18 550.24 30.29 548.7 42.39 554.72 C49.73 558.38 50.39 559.85 50.39 572.25 C50.39
								 583.61 49.87 585.37 45.69 588.6 C39.68 593.22 25.3 595.28 15.48 593.08 ZM38.43 589.33 C40.56 588.6
								 43.64 586.91 45.25 585.52 C48.99 582.29 49.14 579.95 45.77 576.65 C37.48 568.65 12.1 568.8 4.55
								 576.94 C0 581.85 4.4 587.43 14.96 590.07 C20.61 591.46 33.22 591.09 38.43 589.33 ZM12.91 569.31
								 C15.84 568.43 19.51 568.06 25.82 568.14 C35.5 568.14 40.85 569.53 45.69 573.2 L48.19 575.11 L48.19
								 568.95 C48.19 561.54 47.23 559.92 41.15 557.06 C30.14 551.86 11.74 553.47 4.77 560.14 C2.86 561.98
								 2.71 562.49 2.71 568.58 L2.71 575.03 L5.79 572.83 C7.48 571.59 10.71 570.05 12.91 569.31 Z"
							class="st23"/>
				</g>
			</g>
		</g>
		<g id="group149-210" transform="translate(571.322,-311.811)" v:mID="149" v:groupContext="group">
			<title>Sheet.149</title>
			<g id="shape150-211" v:mID="150" v:groupContext="shape" transform="translate(0,1143.98) scale(1,-1)">
				<title>Sheet.150</title>
				<path d="M15.48 593.08 C10.41 591.9 6.82 590.29 4.33 587.94 C0.95 584.86 0.51 583.1 0.51 571.51 L0.51 560.51 L3.23
							 558.16 C12.18 550.24 30.29 548.7 42.39 554.72 C49.73 558.38 50.39 559.85 50.39 572.25 C50.39 583.61
							 49.87 585.37 45.69 588.6 C39.68 593.22 25.3 595.28 15.48 593.08 ZM38.43 589.33 C40.56 588.6 43.64 586.91
							 45.25 585.52 C48.99 582.29 49.14 579.95 45.77 576.65 C37.48 568.65 12.1 568.8 4.55 576.94 C0 581.85
							 4.4 587.43 14.96 590.07 C20.61 591.46 33.22 591.09 38.43 589.33 ZM12.91 569.31 C15.84 568.43 19.51 568.06
							 25.82 568.14 C35.5 568.14 40.85 569.53 45.69 573.2 L48.19 575.11 L48.19 568.95 C48.19 561.54 47.23 559.92
							 41.15 557.06 C30.14 551.86 11.74 553.47 4.77 560.14 C2.86 561.98 2.71 562.49 2.71 568.58 L2.71 575.03
							 L5.79 572.83 C7.48 571.59 10.71 570.05 12.91 569.31 Z" class="st23"/>
			</g>
		</g>
		<g id="group151-213" transform="translate(571.322,-262.205)" v:mID="151" v:groupContext="group">
			<title>Sheet.151</title>
			<g id="shape152-214" v:mID="152" v:groupContext="shape" transform="translate(0,1143.98) scale(1,-1)">
				<title>Sheet.152</title>
				<path d="M15.48 593.08 C10.41 591.9 6.82 590.29 4.33 587.94 C0.95 584.86 0.51 583.1 0.51 571.51 L0.51 560.51 L3.23
							 558.16 C12.18 550.24 30.29 548.7 42.39 554.72 C49.73 558.38 50.39 559.85 50.39 572.25 C50.39 583.61
							 49.87 585.37 45.69 588.6 C39.68 593.22 25.3 595.28 15.48 593.08 ZM38.43 589.33 C40.56 588.6 43.64 586.91
							 45.25 585.52 C48.99 582.29 49.14 579.95 45.77 576.65 C37.48 568.65 12.1 568.8 4.55 576.94 C0 581.85
							 4.4 587.43 14.96 590.07 C20.61 591.46 33.22 591.09 38.43 589.33 ZM12.91 569.31 C15.84 568.43 19.51 568.06
							 25.82 568.14 C35.5 568.14 40.85 569.53 45.69 573.2 L48.19 575.11 L48.19 568.95 C48.19 561.54 47.23 559.92
							 41.15 557.06 C30.14 551.86 11.74 553.47 4.77 560.14 C2.86 561.98 2.71 562.49 2.71 568.58 L2.71 575.03
							 L5.79 572.83 C7.48 571.59 10.71 570.05 12.91 569.31 Z" class="st23"/>
			</g>
		</g>
		<g id="group153-216" transform="translate(571.322,-168.052)" v:mID="153" v:groupContext="group">
			<title>Sheet.153</title>
			<g id="shape154-217" v:mID="154" v:groupContext="shape" transform="translate(0,1143.98) scale(1,-1)">
				<title>Sheet.154</title>
				<path d="M15.48 593.08 C10.41 591.9 6.82 590.29 4.33 587.94 C0.95 584.86 0.51 583.1 0.51 571.51 L0.51 560.51 L3.23
							 558.16 C12.18 550.24 30.29 548.7 42.39 554.72 C49.73 558.38 50.39 559.85 50.39 572.25 C50.39 583.61
							 49.87 585.37 45.69 588.6 C39.68 593.22 25.3 595.28 15.48 593.08 ZM38.43 589.33 C40.56 588.6 43.64 586.91
							 45.25 585.52 C48.99 582.29 49.14 579.95 45.77 576.65 C37.48 568.65 12.1 568.8 4.55 576.94 C0 581.85
							 4.4 587.43 14.96 590.07 C20.61 591.46 33.22 591.09 38.43 589.33 ZM12.91 569.31 C15.84 568.43 19.51 568.06
							 25.82 568.14 C35.5 568.14 40.85 569.53 45.69 573.2 L48.19 575.11 L48.19 568.95 C48.19 561.54 47.23 559.92
							 41.15 557.06 C30.14 551.86 11.74 553.47 4.77 560.14 C2.86 561.98 2.71 562.49 2.71 568.58 L2.71 575.03
							 L5.79 572.83 C7.48 571.59 10.71 570.05 12.91 569.31 Z" class="st23"/>
			</g>
		</g>
		<g id="group155-219" transform="translate(340.724,-109.332)" v:mID="155" v:groupContext="group">
			<title>Sheet.155</title>
			<g id="shape156-220" v:mID="156" v:groupContext="shape" transform="translate(0,1143.98) scale(1,-1)">
				<title>Sheet.156</title>
				<path d="M15.48 593.08 C10.41 591.9 6.82 590.29 4.33 587.94 C0.95 584.86 0.51 583.1 0.51 571.51 L0.51 560.51 L3.23
							 558.16 C12.18 550.24 30.29 548.7 42.39 554.72 C49.73 558.38 50.39 559.85 50.39 572.25 C50.39 583.61
							 49.87 585.37 45.69 588.6 C39.68 593.22 25.3 595.28 15.48 593.08 ZM38.43 589.33 C40.56 588.6 43.64 586.91
							 45.25 585.52 C48.99 582.29 49.14 579.95 45.77 576.65 C37.48 568.65 12.1 568.8 4.55 576.94 C0 581.85
							 4.4 587.43 14.96 590.07 C20.61 591.46 33.22 591.09 38.43 589.33 ZM12.91 569.31 C15.84 568.43 19.51 568.06
							 25.82 568.14 C35.5 568.14 40.85 569.53 45.69 573.2 L48.19 575.11 L48.19 568.95 C48.19 561.54 47.23 559.92
							 41.15 557.06 C30.14 551.86 11.74 553.47 4.77 560.14 C2.86 561.98 2.71 562.49 2.71 568.58 L2.71 575.03
							 L5.79 572.83 C7.48 571.59 10.71 570.05 12.91 569.31 Z" class="st23"/>
			</g>
		</g>
		<g id="group157-222" transform="translate(571.322,-73.0913)" v:mID="157" v:groupContext="group">
			<title>Sheet.157</title>
			<g id="shape158-223" v:mID="158" v:groupContext="shape" transform="translate(0,1143.98) scale(1,-1)">
				<title>Sheet.158</title>
				<path d="M15.48 593.08 C10.41 591.9 6.82 590.29 4.33 587.94 C0.95 584.86 0.51 583.1 0.51 571.51 L0.51 560.51 L3.23
							 558.16 C12.18 550.24 30.29 548.7 42.39 554.72 C49.73 558.38 50.39 559.85 50.39 572.25 C50.39 583.61
							 49.87 585.37 45.69 588.6 C39.68 593.22 25.3 595.28 15.48 593.08 ZM38.43 589.33 C40.56 588.6 43.64 586.91
							 45.25 585.52 C48.99 582.29 49.14 579.95 45.77 576.65 C37.48 568.65 12.1 568.8 4.55 576.94 C0 581.85
							 4.4 587.43 14.96 590.07 C20.61 591.46 33.22 591.09 38.43 589.33 ZM12.91 569.31 C15.84 568.43 19.51 568.06
							 25.82 568.14 C35.5 568.14 40.85 569.53 45.69 573.2 L48.19 575.11 L48.19 568.95 C48.19 561.54 47.23 559.92
							 41.15 557.06 C30.14 551.86 11.74 553.47 4.77 560.14 C2.86 561.98 2.71 562.49 2.71 568.58 L2.71 575.03
							 L5.79 572.83 C7.48 571.59 10.71 570.05 12.91 569.31 Z" class="st23"/>
			</g>
		</g>
	</g>
</svg>
